<svg xmlns="http://www.w3.org/2000/svg" version="1.1" xmlns:xlink="http://www.w3.org/1999/xlink" xmlns:svgjs="http://svgjs.dev/svgjs" width="1000" height="623" viewBox="0 0 1000 623"><g transform="matrix(1,0,0,1,-0.6060606060606233,0.2522267206477409)"><svg viewBox="0 0 396 247" data-background-color="#ffffff" preserveAspectRatio="xMidYMid meet" height="623" width="1000" xmlns="http://www.w3.org/2000/svg" xmlns:xlink="http://www.w3.org/1999/xlink"><g id="tight-bounds" transform="matrix(1,0,0,1,0.2400000000000091,-0.09999999999999432)"><svg viewBox="0 0 395.52 247.2" height="247.2" width="395.52"><rect width="395.5199890136719" height="247.1999969482422" fill="url(#f6353364-1dfb-4bfa-a756-841202fe0a0c)" mask="url(#8d301e96-c1d5-487d-8475-a3ef466db55c)" data-fill-palette-color="tertiary"></rect><g><svg></svg></g><g><svg viewBox="0 0 395.52 247.2" height="247.2" width="395.52"><g transform="matrix(1,0,0,1,149.34293461950696,47.215199999999996)"><svg viewBox="0 0 96.83413076098607 152.7696" height="152.7696" width="96.83413076098607"><g><svg viewBox="0 0 96.83413076098607 152.7696" height="152.7696" width="96.83413076098607"><g><svg viewBox="0 0 96.83413076098607 152.7696" height="152.7696" width="96.83413076098607"><g><svg viewBox="0 0 96.83413076098607 152.7696" height="152.7696" width="96.83413076098607"><g id="textblocktransform"><svg viewBox="0 0 96.83413076098607 152.7696" height="152.7696" width="96.83413076098607" id="textblock"><g><svg viewBox="0 0 96.83413076098607 152.7696" height="152.7696" width="96.83413076098607"><g transform="matrix(1,0,0,1,0,0)"><svg width="96.83413076098607" viewBox="-0.21555551886558533 -30.959999084472656 23.655555725097656 37.31999969482422" height="152.7696" data-palette-color="#a1a6db"><path d="M1.96 1.64L1.96 1.64Q1.96 4.6 5.08 5.2L5.08 5.2Q5.68 5.32 6.44 5.32L6.44 5.32Q11.44 5.32 14.36 2.1 17.28-1.12 17.28-6L17.28-6Q17.28-7.92 16.58-9.54 15.88-11.16 14.84-12.22 13.8-13.28 12.58-14.36 11.36-15.44 10.32-16.32 9.28-17.2 8.58-18.44 7.88-19.68 7.88-21.08L7.88-21.08Q7.88-24.76 11.18-27.86 14.48-30.96 18.28-30.96L18.28-30.96Q19.04-30.96 19.4-30.4 19.76-29.84 19.76-29.28L19.76-29.28 19.72-28.76Q19.44-28.92 18.32-28.92L18.32-28.92Q15.76-28.92 13.36-26.52 10.96-24.12 10.96-20.96L10.96-20.96Q10.96-19.68 11.66-18.46 12.36-17.24 13.4-16.32 14.44-15.4 15.64-14.26 16.84-13.12 17.88-12.02 18.92-10.92 19.62-9.34 20.32-7.76 20.32-6L20.32-6Q20.32-1.16 16.32 2.6 12.32 6.36 6.44 6.36L6.44 6.36Q1.48 6.36 0.16 3.16L0.16 3.16Q-0.88 0.52 0.96-2.68 2.8-5.88 6.28-7L6.28-7Q7.56-7.4 8.56-7.4 9.56-7.4 9.94-7.06 10.32-6.72 10.44-6L10.44-6Q6.68-6 4-2.96L4-2.96Q1.96-0.68 1.96 1.64ZM20.52-20.48L20.52-20.48Q20.52-20.28 20.14-20.28 19.76-20.28 19.44-20.44 19.12-20.6 19.12-20.88L19.12-20.88Q19.12-24.96 20.04-27.44 20.96-29.92 22.48-29.92L22.48-29.92Q22.88-29.92 23.16-29.64 23.44-29.36 23.44-28.92L23.44-28.92Q21.64-27.12 20.84-23.52L20.84-23.52Q20.52-22.08 20.52-20.48Z" opacity="1" transform="matrix(1,0,0,1,0,0)" fill="#a1a6db" class="wordmark-text-0" data-fill-palette-color="primary" id="text-0"></path></svg></g></svg></g></svg></g></svg></g></svg></g></svg></g></svg></g><g><path d="M172.017 0c30.402 0 58.24 10.976 79.768 29.183l-11.147 0c-19.26-14.022-42.974-22.294-68.621-22.295-25.647 0-49.361 8.272-68.621 22.295l-11.147 0c21.528-18.206 49.366-29.183 79.768-29.183zM172.017 247.2c-30.402 0-58.24-10.976-79.768-29.183l11.147 0c19.26 14.022 42.974 22.294 68.621 22.295 25.647 0 49.361-8.272 68.621-22.295h11.147c-21.528 18.206-49.366 29.183-79.768 29.183z" fill="url(#f6353364-1dfb-4bfa-a756-841202fe0a0c)" stroke="transparent" data-fill-palette-color="tertiary"></path></g></svg></g><defs></defs><mask id="8d301e96-c1d5-487d-8475-a3ef466db55c"><g id="SvgjsG1111"><svg viewBox="0 0 395.52 247.2" height="247.2" width="395.52"><g><svg></svg></g><g><svg viewBox="0 0 395.52 247.2" height="247.2" width="395.52"><g transform="matrix(1,0,0,1,149.34293461950696,47.215199999999996)"><svg viewBox="0 0 96.83413076098607 152.7696" height="152.7696" width="96.83413076098607"><g><svg viewBox="0 0 96.83413076098607 152.7696" height="152.7696" width="96.83413076098607"><g><svg viewBox="0 0 96.83413076098607 152.7696" height="152.7696" width="96.83413076098607"><g><svg viewBox="0 0 96.83413076098607 152.7696" height="152.7696" width="96.83413076098607"><g id="SvgjsG1110"><svg viewBox="0 0 96.83413076098607 152.7696" height="152.7696" width="96.83413076098607" id="SvgjsSvg1109"><g><svg viewBox="0 0 96.83413076098607 152.7696" height="152.7696" width="96.83413076098607"><g transform="matrix(1,0,0,1,0,0)"><svg width="96.83413076098607" viewBox="-0.21555551886558533 -30.959999084472656 23.655555725097656 37.31999969482422" height="152.7696" data-palette-color="#a1a6db"></svg></g></svg></g></svg></g></svg></g></svg></g></svg></g></svg></g><g><path d="M172.017 0c30.402 0 58.24 10.976 79.768 29.183l-11.147 0c-19.26-14.022-42.974-22.294-68.621-22.295-25.647 0-49.361 8.272-68.621 22.295l-11.147 0c21.528-18.206 49.366-29.183 79.768-29.183zM172.017 247.2c-30.402 0-58.24-10.976-79.768-29.183l11.147 0c19.26 14.022 42.974 22.294 68.621 22.295 25.647 0 49.361-8.272 68.621-22.295h11.147c-21.528 18.206-49.366 29.183-79.768 29.183z" fill="white" stroke="transparent"></path></g></svg></g><defs></defs></svg></g></mask><linearGradient x1="0" x2="1" y1="0.578" y2="0.595" id="f6353364-1dfb-4bfa-a756-841202fe0a0c"><stop stop-color="#6ee2f5" offset="0"></stop><stop stop-color="#6454f0" offset="1"></stop></linearGradient></svg><rect width="395.52" height="247.2" fill="none" stroke="none" visibility="hidden"></rect></g></svg></g></svg>